[center]
 
http://www.filmofilia.com/wp-content/uploads/2011/11/john_carter_image.jpg
John Carter 2012 TS FULL LiNE READNFO XviD - ILLUMINATI
 
http://www.imdb.com/title/tt0401729/

Video
ID                               : 0
Format                           : MPEG-4 Visual
Format profile                   : Advanced Simple@L5
Format settings, BVOP            : 2
Format settings, QPel            : No
Format settings, GMC             : No warppoints
Format settings, Matrix          : Default (H.263)
Muxing mode                      : Packed bitstream
Codec ID                         : XVID
Codec ID/Hint                    : XviD
Duration                         : 2h 2mn
Bit rate                         : 1 896 Kbps
Width                            : 720 pixels
Height                           : 288 pixels
Display aspect ratio             : 2.500
Frame rate                       : 25.000 fps
Color space                      : YUV
Chroma subsampling               : 4:2:0
Bit depth                        : 8 bits
Scan type                        : Progressive
Compression mode                 : Lossy
Bits/(Pixel*Frame)               : 0.366
Stream size                      : 1.62 GiB (93%)
Writing library                  : XviD 64

Audio
ID                               : 1
Format                           : MPEG Audio
Format version                   : Version 1
Format profile                   : Layer 3
Mode                             : Joint stereo
Mode extension                   : MS Stereo
Codec ID                         : 55
Codec ID/Hint                    : MP3
Duration                         : 2h 2mn
Bit rate mode                    : Constant
Bit rate                         : 128 Kbps
Channel(s)                       : 2 channels
Sampling rate                    : 44.1 KHz
Compression mode                 : Lossy
Stream size                      : 112 MiB (6%)
Alignment                        : Split accross interleaves
Interleave, duration             : 40 ms (1.00 video frame)

Sources - 
     V: 26k 
     A: Thanks 


Notes -
Thanks to 26k for the 720p source files.
cropped rotated and perspective filtered
audio is full LiNE    
hardcoded english subs for alien speak
 
http://www.shotpix.com/images/76088917427338748768.png 
http://www.shotpix.com/images/41176222050651628744.png 
http://www.shotpix.com/images/32347545853036771091.png 
http://www.shotpix.com/images/50918152986318197335.png 
http://www.shotpix.com/images/21771455536267722706.png 
http://www.shotpix.com/images/26985924465519807787.png 
http://www.shotpix.com/images/93729756613904290861.png